<svg xmlns="http://www.w3.org/2000/svg" width="932.883" height="128.602" viewBox="0 0 932.883 128.602">
  <g id="Tracé_57018" data-name="Tracé 57018" transform="translate(0 30)" fill="#fff">
    <path d="M 912.5394287109375 97.76692962646484 L 20.35928344726562 89.07762908935547 L 20.35528373718262 89.07762908935547 L 20.35116577148438 89.07762908935547 C 17.71869659423828 89.07762908935547 15.1651668548584 88.54940032958984 12.76163673400879 87.50762939453125 C 10.43822574615479 86.50057220458984 8.351166725158691 85.05845642089844 6.558342933654785 83.22128295898438 C 4.764107704162598 81.3826904296875 3.355284214019775 79.24139404296875 2.371166467666626 76.85704040527344 C 1.351872444152832 74.38763427734375 0.8350489139556885 71.76363372802734 0.8350489139556885 69.05821990966797 L 0.8350489139556885 16.92233848571777 C 0.8350489139556885 14.21692657470703 1.351872444152832 11.59292602539062 2.371166467666626 9.123514175415039 C 3.355284214019775 6.739161491394043 4.764107704162598 4.597867488861084 6.558342933654785 2.759279251098633 C 8.351166725158691 0.922102689743042 10.43822574615479 -0.5200149416923523 12.76163673400879 -1.527073740959167 C 15.1651668548584 -2.568838596343994 17.71869659423828 -3.096956253051758 20.35116577148438 -3.096956253051758 L 20.36340141296387 -3.096956253051758 L 20.37551879882812 -3.097426652908325 L 912.5556640625 -29.16542625427246 C 915.1688842773438 -29.16385459899902 917.7197875976562 -28.63575744628906 920.1209106445312 -27.59507369995117 C 922.4442138671875 -26.58801460266113 924.5313720703125 -25.14589691162109 926.32421875 -23.3087215423584 C 928.1184692382812 -21.47013282775879 929.5272827148438 -19.32883834838867 930.5114135742188 -16.94448471069336 C 931.5307006835938 -14.47507381439209 932.047607421875 -11.85107421875 932.047607421875 -9.145662307739258 L 932.047607421875 77.74751281738281 C 932.047607421875 80.45292663574219 931.5307006835938 83.07692718505859 930.5114135742188 85.54634094238281 C 929.5272827148438 87.93069458007812 928.1184692382812 90.07198333740234 926.32421875 91.91057586669922 C 924.5313720703125 93.74774932861328 922.4442138671875 95.18986511230469 920.1209106445312 96.19692993164062 C 917.7196044921875 97.2376708984375 915.1685180664062 97.76589202880859 912.5387573242188 97.76692199707031 L 912.5394287109375 97.76692962646484 Z" stroke="none"/>
    <path d="M 912.5552978515625 -28.32999420166016 L 912.580078125 -28.33071899414062 L 20.3511962890625 -2.262016296386719 C 15.36895751953125 -2.262016296386719 10.68280029296875 -0.2716598510742188 7.1558837890625 3.342453002929688 C 5.43646240234375 5.104454040527344 4.08624267578125 7.156692504882812 3.1429443359375 9.442104339599609 C 2.16552734375 11.80998611450195 1.66998291015625 14.32669067382812 1.66998291015625 16.92233657836914 L 1.66998291015625 69.05821990966797 C 1.66998291015625 71.65386962890625 2.16552734375 74.17057037353516 3.1429443359375 76.5384521484375 C 4.08624267578125 78.82386779785156 5.43646240234375 80.8760986328125 7.1558837890625 82.63809967041016 C 10.68280029296875 86.25222015380859 15.36895751953125 88.24256896972656 20.3511962890625 88.24256896972656 L 20.367431640625 88.24269104003906 L 912.5350952148438 96.93186187744141 C 917.5159912109375 96.93089294433594 922.2005004882812 94.94062805175781 925.7265625 91.327392578125 C 927.4461059570312 89.56539916992188 928.7962036132812 87.51316070556641 929.7396240234375 85.22775268554688 C 930.717041015625 82.85986328125 931.2125854492188 80.34316253662109 931.2125854492188 77.74751281738281 L 931.2125854492188 -9.145660400390625 C 931.2125854492188 -11.74131011962891 930.717041015625 -14.25801849365234 929.7396240234375 -16.62590026855469 C 928.7962036132812 -18.91130828857422 927.4461059570312 -20.96354675292969 925.7265625 -22.72554779052734 C 922.2052612304688 -26.33392333984375 917.5286865234375 -28.32369232177734 912.5552978515625 -28.32999420166016 M 912.5313110351562 -30.00001525878906 C 923.7709350585938 -30.00001525878906 932.882568359375 -20.66319274902344 932.882568359375 -9.145660400390625 L 932.882568359375 77.74751281738281 C 932.882568359375 89.26504516601562 923.7709350585938 98.60186767578125 912.5313110351562 98.60186767578125 L 20.3511962890625 89.91257476806641 C 9.11151123046875 89.91257476806641 0 80.57575225830078 0 69.05821990966797 L 0 16.92233657836914 C 0 5.404808044433594 9.11151123046875 -3.932014465332031 20.3511962890625 -3.932014465332031 L 912.5313110351562 -30.00001525878906 Z" stroke="none" fill="#e76087"/>
  </g>
</svg>
